Coordinates
version=1
nRows=11
nColumns=40
inDegrees=yes

Units are S.I. units (second, meters, Newtons, ...)
If the header above contains a line with 'inDegrees', this indicates whether rotational values are in degrees (yes) or radians (no).

endheader
time	pelvis_tilt	pelvis_list	pelvis_rotation	pelvis_tx	pelvis_ty	pelvis_tz	hip_flexion_r	hip_adduction_r	hip_rotation_r	knee_angle_r	knee_angle_r_beta	ankle_angle_r	subtalar_angle_r	mtp_angle_r	hip_flexion_l	hip_adduction_l	hip_rotation_l	knee_angle_l	knee_angle_l_beta	ankle_angle_l	subtalar_angle_l	mtp_angle_l	lumbar_extension	lumbar_bending	lumbar_rotation	arm_flex_r	arm_add_r	arm_rot_r	elbow_flex_r	pro_sup_r	wrist_flex_r	wrist_dev_r	arm_flex_l	arm_add_l	arm_rot_l	elbow_flex_l	pro_sup_l	wrist_flex_l	wrist_dev_l
      6.05000000	    -30.32656628	      7.65385762	      1.03764113	     -0.38191501	      0.76621703	     -1.01600011	     27.33366847	     -8.45891792	     -0.69210058	     86.44180085	      1.50869404	    -11.93465608	      0.00000000	      0.00000000	     71.01131387	      3.83732690	    -16.73793494	     65.27296534	      1.13922816	     16.08660657	      0.00000000	      0.00000000	     -3.55860524	     -9.67976730	      0.05116943	     89.93877116	    -16.06121754	      7.17386045	     46.10234462	     75.77328258	      0.00000000	      0.00000000	     89.93568753	    -23.01402978	      9.21879193	     51.92844910	     79.96059154	      0.00000000	      0.00000000
      6.05500000	    -30.26109050	      7.60017201	      0.91929922	     -0.38180593	      0.76738074	     -1.01596855	     27.33515718	     -8.41327242	     -0.64502733	     86.44425190	      1.50873682	    -11.91441693	      0.00000000	      0.00000000	     70.78780527	      3.78419977	    -16.66252972	     64.97693977	      1.13406154	     15.96889762	      0.00000000	      0.00000000	     -3.54852735	     -9.61396348	      0.15523699	     89.93872856	    -16.04316013	      7.19936760	     46.06564451	     75.85001313	      0.00000000	      0.00000000	     89.93525251	    -23.04335407	      9.27865747	     51.84620924	     80.03159213	      0.00000000	      0.00000000
      6.06000000	    -30.21558102	      7.51781216	      0.85904071	     -0.38191874	      0.76868083	     -1.01570835	     27.39490729	     -8.32717540	     -0.65799898	     86.48579817	      1.50946193	    -11.88088667	      0.00000000	      0.00000000	     70.59901366	      3.70859912	    -16.61645551	     64.69205260	      1.12908932	     15.85919249	      0.00000000	      0.00000000	     -3.53949162	     -9.55741677	      0.21405321	     89.93868815	    -16.06407674	      7.22173584	     46.02540377	     75.91757691	      0.00000000	      0.00000000	     89.93525037	    -23.05631228	      9.33740430	     51.82022607	     80.09736510	      0.00000000	      0.00000000
      6.06500000	    -30.15969582	      7.47250630	      0.78525380	     -0.38190567	      0.77001072	     -1.01555196	     27.41064113	     -8.25381167	     -0.61835824	     86.47510612	      1.50927532	    -11.87851732	      0.00000000	      0.00000000	     70.36956187	      3.69686368	    -16.51655847	     64.35384287	      1.12318644	     15.70413167	      0.00000000	      0.00000000	     -3.54340299	     -9.52716671	      0.27193051	     89.93846287	    -16.05536328	      7.24260009	     45.99959791	     76.03086049	      0.00000000	      0.00000000	     89.93508417	    -23.08849852	      9.44101016	     51.72910473	     80.20364034	      0.00000000	      0.00000000
      6.07000000	    -30.09387047	      7.42912670	      0.66806703	     -0.38180384	      0.77126932	     -1.01543174	     27.43420522	     -8.24489879	     -0.61447602	     86.51677874	      1.51000265	    -11.84869420	      0.00000000	      0.00000000	     70.15719788	      3.63740639	    -16.44212230	     64.13252065	      1.11932364	     15.62289212	      0.00000000	      0.00000000	     -3.53632996	     -9.48205533	      0.37918466	     89.93830234	    -16.05052835	      7.26710288	     45.94779453	     76.09537687	      0.00000000	      0.00000000	     89.93471192	    -23.12996618	      9.47710065	     51.69956913	     80.26254180	      0.00000000	      0.00000000
      6.07500000	    -30.06070725	      7.34054818	      0.58981853	     -0.38186879	      0.77252805	     -1.01518672	     27.48187561	     -8.10340961	     -0.56405652	     86.53329593	      1.51029093	    -11.83692345	      0.00000000	      0.00000000	     69.96905048	      3.56988584	    -16.36292423	     63.81903631	      1.11385231	     15.52319082	      0.00000000	      0.00000000	     -3.50812461	     -9.41298569	      0.44343786	     89.93831851	    -16.05467142	      7.30377062	     45.91172636	     76.17324997	      0.00000000	      0.00000000	     89.93455279	    -23.16239588	      9.54539721	     51.64884944	     80.33421356	      0.00000000	      0.00000000
      6.08000000	    -30.02054689	      7.25896821	      0.56970567	     -0.38195860	      0.77394016	     -1.01511404	     27.52233295	     -8.04509330	     -0.60745126	     86.54172324	      1.51043801	    -11.84560488	      0.00000000	      0.00000000	     69.75892305	      3.55417311	    -16.28909859	     63.49025219	      1.10811394	     15.38846161	      0.00000000	      0.00000000	     -3.50938812	     -9.33858767	      0.45708275	     89.93819603	    -16.05612332	      7.32671808	     45.87706883	     76.24486297	      0.00000000	      0.00000000	     89.93447875	    -23.16526942	      9.60665294	     51.59979129	     80.40087147	      0.00000000	      0.00000000
      6.08500000	    -30.00850514	      7.23267704	      0.53210068	     -0.38179125	      0.77500224	     -1.01517743	     27.54991726	     -8.06281200	     -0.60806460	     86.52307956	      1.51011262	    -11.83472802	      0.00000000	      0.00000000	     69.68475608	      3.54186432	    -16.26500863	     63.42853262	      1.10703673	     15.36407825	      0.00000000	      0.00000000	     -3.44881379	     -9.32528401	      0.47152056	     89.93759875	    -16.05670376	      7.32196721	     45.90160085	     76.25632253	      0.00000000	      0.00000000	     89.93379296	    -23.17601841	      9.60366060	     51.61673179	     80.41093584	      0.00000000	      0.00000000
      6.09000000	    -29.95065654	      7.13870622	      0.38688395	     -0.38179868	      0.77648878	     -1.01487486	     27.61182614	     -7.94614363	     -0.58048755	     86.56840451	      1.51090369	    -11.81692966	      0.00000000	      0.00000000	     69.35833429	      3.45622661	    -16.13070148	     62.90608412	      1.09791829	     15.18620803	      0.00000000	      0.00000000	     -3.43962313	     -9.23288008	      0.60766009	     89.93776692	    -16.03148969	      7.37698525	     45.80209869	     76.33273719	      0.00000000	      0.00000000	     89.93357283	    -23.23263683	      9.68795227	     51.50996924	     80.48112112	      0.00000000	      0.00000000
      6.09500000	    -29.93313701	      7.07711654	      0.35284282	     -0.38190272	      0.77782333	     -1.01475049	     27.65842116	     -7.86255349	     -0.55256623	     86.56713671	      1.51088156	    -11.76475860	      0.00000000	      0.00000000	     69.16918372	      3.45948237	    -16.03689250	     62.51957777	      1.09117248	     15.00648462	      0.00000000	      0.00000000	     -3.40584459	     -9.19243506	      0.62692127	     89.93766084	    -16.03635113	      7.41846421	     45.74868921	     76.41858043	      0.00000000	      0.00000000	     89.93369090	    -23.24926023	      9.78999944	     51.46807409	     80.55871029	      0.00000000	      0.00000000
      6.10000000	    -29.89674100	      7.02007379	      0.30506693	     -0.38194711	      0.77919291	     -1.01467163	     27.70979978	     -7.83412830	     -0.56043879	     86.59429753	      1.51135561	    -11.72374690	      0.00000000	      0.00000000	     68.97579306	      3.46715704	    -15.91831119	     62.19988087	      1.08559272	     14.84676114	      0.00000000	      0.00000000	     -3.39237216	     -9.13272765	      0.65370764	     89.93767097	    -16.01391141	      7.45204548	     45.72715964	     76.49508239	      0.00000000	      0.00000000	     89.93340882	    -23.29526074	      9.81908629	     51.41162298	     80.62513433	      0.00000000	      0.00000000
